<svg width="30" height="32" viewBox="0 0 30 32" fill="none" xmlns="http://www.w3.org/2000/svg">
<g id="Line">
<path id="Vector" d="M28.3195 18.7138C26.9055 16.5957 26.0358 14.1615 25.7874 11.6269L25.6128 9.96791C25.3318 7.23411 24.0469 4.70166 22.0067 2.86043C19.9664 1.01919 17.3159 0 14.5677 0C11.8194 0 9.16888 1.01919 7.12866 2.86043C5.08844 4.70166 3.80355 7.23411 3.52251 9.96791L3.34788 11.6269C3.09719 14.1564 2.22757 16.5854 0.815793 18.6993C0.329624 19.4231 0.0496916 20.2656 0.00602663 21.1364C-0.0376384 22.0072 0.156612 22.8735 0.567938 23.6423C0.979265 24.4111 1.59214 25.0534 2.34083 25.5004C3.08951 25.9473 3.94574 26.1819 4.81766 26.1791H8.74676C8.74676 27.7229 9.36003 29.2035 10.4517 30.2951C11.5433 31.3867 13.0239 32 14.5677 32C16.1115 32 17.592 31.3867 18.6837 30.2951C19.7753 29.2035 20.3886 27.7229 20.3886 26.1791H24.3177C25.1873 26.1801 26.0408 25.945 26.7873 25.4988C27.5337 25.0526 28.1449 24.4122 28.5558 23.6457C28.9666 22.8793 29.1617 22.0157 29.1201 21.1471C29.0784 20.2785 28.8018 19.4375 28.3195 18.7138ZM14.5677 29.0896C13.7958 29.0896 13.0555 28.7829 12.5097 28.2371C11.9638 27.6913 11.6572 26.951 11.6572 26.1791H17.4781C17.4781 26.951 17.1715 27.6913 16.6257 28.2371C16.0798 28.7829 15.3396 29.0896 14.5677 29.0896ZM24.3177 23.2687H4.81766C4.56922 23.2687 4.32322 23.2197 4.0937 23.1247C3.86418 23.0296 3.65563 22.8902 3.47996 22.7146C3.30429 22.5389 3.16494 22.3303 3.06987 22.1008C2.9748 21.8713 2.92587 21.6253 2.92587 21.3769C2.93724 21.0144 3.04799 20.662 3.24602 20.3582C4.9216 17.8382 5.95113 14.9445 6.24378 11.9325L6.4184 10.2735C6.62734 8.25765 7.57603 6.39078 9.08115 5.03359C10.5863 3.67641 12.541 2.92525 14.5677 2.92525C16.5943 2.92525 18.549 3.67641 20.0542 5.03359C21.5593 6.39078 22.508 8.25765 22.7169 10.2735L22.8915 11.9325C23.1842 14.9445 24.2137 17.8382 25.8893 20.3582C26.0951 20.6745 26.2062 21.0431 26.2094 21.4205C26.198 21.9146 25.9937 22.3847 25.6402 22.7301C25.2866 23.0755 24.8119 23.2688 24.3177 23.2687Z" fill="black" fill-opacity="0.54"/>
</g>
</svg>
