<svg width="24" height="25" viewBox="0 0 24 25" fill="none" xmlns="http://www.w3.org/2000/svg">
<g id="Pictogrammers-Material-File-File-compare 1">
<path id="Vector" d="M10 18.5H6V16.5H10V18.5ZM10 14.5H6V12.5H10V14.5ZM10 1.5V2.5H6C4.89 2.5 4 3.39 4 4.5V20.5C4 21.0304 4.21071 21.5391 4.58579 21.9142C4.96086 22.2893 5.46957 22.5 6 22.5H10V23.5H12V1.5H10ZM20 8.5V20.5C20 21.61 19.11 22.5 18 22.5H14V20.5H18V11.5H14V9.5H18.5L14 5V2.5L20 8.5ZM16 14.5H14V12.5H16V14.5ZM16 18.5H14V16.5H16V18.5Z" fill="#212121"/>
</g>
</svg>
