<svg width="24" height="24" viewBox="0 0 24 24" fill="none" xmlns="http://www.w3.org/2000/svg">
<path d="M19.059 2.82352H16.8199C16.5285 2.00198 15.7439 1.41173 14.8237 1.41173H13.9969C13.7055 0.590063 12.9205 0 12.0002 0C11.0799 0 10.2948 0.590062 10.0035 1.41178H9.17665C8.2564 1.41178 7.47181 2.00198 7.18043 2.82356H4.94136C3.7737 2.82356 2.82373 3.77353 2.82373 4.94119V21.8824C2.82373 23.05 3.7737 24 4.94136 24H19.059C20.2267 24 21.1767 23.05 21.1767 21.8824V4.94119C21.1767 3.77348 20.2267 2.82352 19.059 2.82352ZM8.47076 3.52941C8.47076 3.1402 8.7874 2.82352 9.17665 2.82352H10.5884C10.9782 2.82352 11.2943 2.50748 11.2943 2.11762C11.2943 1.72842 11.611 1.41173 12.0002 1.41173C12.3894 1.41173 12.7061 1.72837 12.7061 2.11762C12.7061 2.50748 13.0221 2.82352 13.412 2.82352H14.8238C15.213 2.82352 15.5297 3.14016 15.5297 3.52941V4.2353H8.47076V3.52941ZM19.7649 21.8824C19.7649 22.2716 19.4482 22.5883 19.059 22.5883H4.94136C4.55215 22.5883 4.23546 22.2716 4.23546 21.8824V4.94119C4.23546 4.55198 4.55211 4.2353 4.94136 4.2353H7.05903V4.94119C7.05903 5.33105 7.37506 5.64708 7.76492 5.64708H16.2355C16.6253 5.64708 16.9414 5.33105 16.9414 4.94119V4.2353H19.059C19.4482 4.2353 19.7649 4.55194 19.7649 4.94119V21.8824H19.7649Z" fill="#666666"/>
<path d="M9.88243 8.4707H7.05892C6.66911 8.4707 6.35303 8.78673 6.35303 9.17659C6.35303 9.56645 6.66906 9.88248 7.05892 9.88248H9.88243C10.2722 9.88248 10.5883 9.56645 10.5883 9.17659C10.5883 8.78673 10.2722 8.4707 9.88243 8.4707Z" fill="#666666"/>
<path d="M9.88243 13.4119H7.05892C6.66911 13.4119 6.35303 13.7279 6.35303 14.1178C6.35303 14.5076 6.66906 14.8236 7.05892 14.8236H9.88243C10.2722 14.8236 10.5883 14.5076 10.5883 14.1178C10.5883 13.7279 10.2722 13.4119 9.88243 13.4119Z" fill="#666666"/>
<path d="M9.88243 18.353H7.05892C6.66911 18.353 6.35303 18.6691 6.35303 19.0589C6.35303 19.4488 6.66906 19.7648 7.05892 19.7648H9.88243C10.2722 19.7648 10.5883 19.4488 10.5883 19.0589C10.5883 18.6691 10.2722 18.353 9.88243 18.353Z" fill="#666666"/>
<path d="M17.4405 7.9714C17.1648 7.69572 16.7179 7.69572 16.4423 7.97144L14.8237 9.58994L13.9111 8.67733C13.6354 8.40166 13.1885 8.40166 12.9128 8.67733C12.6371 8.95301 12.6371 9.39991 12.9128 9.67558L14.3246 11.0874C14.4624 11.2252 14.6431 11.2941 14.8238 11.2941C15.0044 11.2941 15.1851 11.2252 15.3229 11.0873L17.4406 8.96969C17.7161 8.69402 17.7161 8.24707 17.4405 7.9714Z" fill="#666666"/>
<path d="M17.4405 12.2067C17.1648 11.9311 16.7179 11.9311 16.4423 12.2068L14.8237 13.8253L13.9111 12.9127C13.6354 12.637 13.1885 12.637 12.9128 12.9127C12.6371 13.1884 12.6371 13.6353 12.9128 13.9109L14.3246 15.3227C14.4624 15.4605 14.6431 15.5294 14.8238 15.5294C15.0044 15.5294 15.1851 15.4605 15.3229 15.3227L17.4406 13.205C17.7161 12.9293 17.7161 12.4824 17.4405 12.2067Z" fill="#666666"/>
<path d="M15.822 19.0588L16.7346 18.1462C17.0102 17.8705 17.0102 17.4236 16.7346 17.148C16.4589 16.8723 16.012 16.8723 15.7363 17.148L14.8237 18.0606L13.9111 17.1479C13.6354 16.8722 13.1885 16.8722 12.9128 17.1479C12.6371 17.4236 12.6371 17.8705 12.9128 18.1462L13.8255 19.0588L12.9128 19.9715C12.6371 20.2472 12.6371 20.6941 12.9128 20.9697C13.0506 21.1075 13.2313 21.1764 13.412 21.1764C13.5926 21.1764 13.7733 21.1075 13.9111 20.9697L14.8238 20.0571L15.7364 20.9697C15.8742 21.1075 16.0549 21.1764 16.2355 21.1764C16.4162 21.1764 16.5969 21.1075 16.7347 20.9697C17.0103 20.694 17.0103 20.2471 16.7347 19.9714L15.822 19.0588Z" fill="#666666"/>
</svg>
