<svg width="18" height="18" viewBox="0 0 18 18" fill="none" xmlns="http://www.w3.org/2000/svg">
<g id="panel 1">
<path id="Vector" d="M16.5 14.25C16.5 14.3485 16.4806 14.446 16.443 14.5371C16.4053 14.6281 16.35 14.7107 16.2804 14.7804C16.2107 14.85 16.128 14.9053 16.037 14.943C15.946 14.9806 15.8485 15 15.75 15H8.8618C8.70897 15.4383 8.42357 15.8181 8.04519 16.0869C7.6668 16.3557 7.21416 16.5001 6.75002 16.5001C6.28589 16.5001 5.83325 16.3557 5.45486 16.0869C5.07647 15.8181 4.79108 15.4383 4.63825 15H2.25C2.05109 15 1.86032 14.921 1.71967 14.7803C1.57902 14.6397 1.5 14.4489 1.5 14.25C1.5 14.0511 1.57902 13.8603 1.71967 13.7197C1.86032 13.579 2.05109 13.5 2.25 13.5H4.6382C4.79105 13.0618 5.07645 12.6819 5.45485 12.4132C5.83324 12.1444 6.28587 12 6.75 12C7.21413 12 7.66676 12.1444 8.04516 12.4132C8.42355 12.6819 8.70895 13.0618 8.8618 13.5H15.75C15.8485 13.5 15.946 13.5194 16.037 13.557C16.128 13.5947 16.2107 13.65 16.2804 13.7196C16.35 13.7893 16.4053 13.872 16.443 13.963C16.4806 14.054 16.5 14.1515 16.5 14.25ZM15.75 8.25001H14.1118C13.9589 7.81177 13.6735 7.43193 13.2952 7.16316C12.9168 6.89439 12.4641 6.75 12 6.75C11.5359 6.75 11.0832 6.89439 10.7048 7.16316C10.3265 7.43193 10.0411 7.81177 9.8882 8.25001H2.25C2.05109 8.25001 1.86032 8.32902 1.71967 8.46968C1.57902 8.61033 1.5 8.80109 1.5 9.00001C1.5 9.19892 1.57902 9.38968 1.71967 9.53034C1.86032 9.67099 2.05109 9.75001 2.25 9.75001H9.88825C10.0411 10.1883 10.3265 10.5681 10.7049 10.8369C11.0832 11.1057 11.5359 11.2501 12 11.2501C12.4642 11.2501 12.9168 11.1057 13.2952 10.8369C13.6736 10.5681 13.959 10.1883 14.1118 9.75001H15.75C15.9489 9.75001 16.1397 9.67099 16.2803 9.53034C16.421 9.38968 16.5 9.19892 16.5 9.00001C16.5 8.80109 16.421 8.61033 16.2803 8.46968C16.1397 8.32902 15.9489 8.25001 15.75 8.25001ZM2.25 4.50001H6.13825C6.29108 4.93826 6.57647 5.31811 6.95486 5.58689C7.33325 5.85567 7.78589 6.00007 8.25002 6.00007C8.71416 6.00007 9.1668 5.85567 9.54519 5.58689C9.92357 5.31811 10.209 4.93826 10.3618 4.50001H15.75C15.9489 4.50001 16.1397 4.42099 16.2803 4.28034C16.421 4.13968 16.5 3.94892 16.5 3.75001C16.5 3.55109 16.421 3.36033 16.2803 3.21968C16.1397 3.07902 15.9489 3.00001 15.75 3.00001H10.3618C10.2089 2.56177 9.92355 2.18193 9.54516 1.91316C9.16676 1.64439 8.71413 1.5 8.25 1.5C7.78587 1.5 7.33324 1.64439 6.95485 1.91316C6.57645 2.18193 6.29105 2.56177 6.1382 3.00001H2.25C2.05109 3.00001 1.86032 3.07902 1.71967 3.21968C1.57902 3.36033 1.5 3.55109 1.5 3.75001C1.5 3.94892 1.57902 4.13968 1.71967 4.28034C1.86032 4.42099 2.05109 4.50001 2.25 4.50001Z" fill="#864F20"/>
</g>
</svg>
