<svg width="24" height="24" viewBox="0 0 24 24" fill="none" xmlns="http://www.w3.org/2000/svg">
<g id="u:multiply">
<path id="Vector" d="M12.7023 11.9999L13.0567 11.6461L19.3564 5.35639C19.3565 5.35629 19.3566 5.3562 19.3567 5.35611C19.4511 5.2616 19.5041 5.1335 19.5041 4.99994C19.5041 4.86625 19.451 4.73803 19.3564 4.64349C19.2619 4.54896 19.1337 4.49585 19 4.49585C18.8664 4.49585 18.7383 4.54885 18.6438 4.64321L12.7023 11.9999ZM12.7023 11.9999L13.0567 12.3538L19.3567 18.6438L19.3579 18.6449C19.4048 18.6914 19.442 18.7467 19.4673 18.8077C19.4927 18.8686 19.5058 18.9339 19.5058 18.9999C19.5058 19.0659 19.4927 19.1313 19.4673 19.1922C19.442 19.2532 19.4048 19.3085 19.3579 19.3549L19.355 19.3578C19.3085 19.4047 19.2532 19.4419 19.1923 19.4673C19.1314 19.4927 19.066 19.5057 19 19.5057C18.934 19.5057 18.8686 19.4927 18.8077 19.4673C18.7468 19.4419 18.6915 19.4047 18.645 19.3578L18.6438 19.3567L12.3538 13.0567L12 12.7023L11.6462 13.0567L5.35616 19.3567L5.355 19.3578C5.30852 19.4047 5.25321 19.4419 5.19229 19.4673C5.13136 19.4927 5.06601 19.5057 5 19.5057C4.93399 19.5057 4.86864 19.4927 4.80771 19.4673C4.74679 19.4419 4.69148 19.4047 4.645 19.3578L4.6421 19.3549C4.59524 19.3085 4.55804 19.2532 4.53266 19.1922C4.50727 19.1313 4.4942 19.0659 4.4942 18.9999C4.4942 18.9339 4.50727 18.8686 4.53266 18.8077C4.55804 18.7467 4.59524 18.6914 4.6421 18.6449L4.64327 18.6438L10.9433 12.3538L11.2977 11.9999L10.9433 11.6461L4.64355 5.35639C4.64352 5.35635 4.64348 5.35631 4.64344 5.35628C4.54898 5.26175 4.49591 5.13358 4.49591 4.99994C4.49591 4.86625 4.54902 4.73803 4.64355 4.64349C4.73809 4.54896 4.86631 4.49585 5 4.49585C5.13364 4.49585 5.26181 4.54892 5.35634 4.64339C5.35637 4.64342 5.35641 4.64346 5.35645 4.64349L11.6462 10.9432L12 11.2976L12.3538 10.9432L18.6436 4.64349L12.7023 11.9999Z" stroke="#864F20"/>
</g>
</svg>
