<svg width="19" height="18" viewBox="0 0 19 18" fill="none" xmlns="http://www.w3.org/2000/svg">
<g id="pen" clip-path="url(#clip0_345_39294)">
<g id="Group">
<path id="Vector" d="M14.0898 0.617188C13.8051 0.676954 13.5098 0.814062 13.2496 1.00039C13.1336 1.08828 10.8414 3.35234 8.15898 6.03828L3.28633 10.918L2.29844 13.9098C1.75352 15.5551 1.31055 16.9473 1.31055 17.0035C1.31055 17.2074 1.54609 17.4395 1.75703 17.4395C1.79219 17.4395 3.17383 16.9895 4.82617 16.4375L7.83203 15.4355L12.7926 10.468C18.1996 5.06094 17.9008 5.37734 18.0836 4.7832C18.1504 4.57578 18.1645 4.43516 18.1645 4.13281C18.1645 3.83047 18.1504 3.68984 18.0836 3.48242C17.9254 2.96211 17.8305 2.83906 16.8531 1.86172C15.9883 0.993361 15.9426 0.954687 15.6508 0.814062C15.482 0.733204 15.2395 0.645313 15.1059 0.617188C14.8105 0.553907 14.3746 0.553907 14.0898 0.617188ZM15.1023 1.58398C15.3766 1.68594 15.5242 1.81602 16.3258 2.62461C17.0746 3.3875 17.1801 3.53516 17.2293 3.92188C17.2961 4.45273 17.1484 4.82188 16.6738 5.29297L16.3574 5.60938L14.7367 3.99219L13.1195 2.375L13.4359 2.06914C13.6117 1.90039 13.8227 1.72461 13.9035 1.67539C14.2551 1.46797 14.7016 1.43633 15.1023 1.58398ZM14.0828 4.6707L15.6895 6.27734L11.6465 10.3203L7.60352 14.3633L5.98633 12.7461L4.36914 11.1289L8.40156 7.09648C10.6234 4.87461 12.4445 3.06055 12.4551 3.06055C12.4656 3.06055 13.1969 3.78477 14.0828 4.6707ZM5.33242 13.4281L6.73516 14.8309L4.66094 15.5199C3.51836 15.8996 2.56914 16.209 2.54805 16.209C2.52695 16.209 2.81875 15.2879 3.19492 14.1594C3.93672 11.9375 3.90508 12.0254 3.91914 12.0254C3.92617 12.0254 4.5625 12.6547 5.33242 13.4281Z" fill="#212121"/>
</g>
</g>
<defs>
<clipPath id="clip0_345_39294">
<rect width="18" height="18" fill="white" transform="translate(0.75)"/>
</clipPath>
</defs>
</svg>
