<svg width="14" height="15" viewBox="0 0 14 15" fill="none" xmlns="http://www.w3.org/2000/svg">
<g id="u:minus-circle">
<path id="Vector" d="M6.99984 1.66663C5.84612 1.66663 4.7183 2.00875 3.75901 2.64972C2.79973 3.29069 2.05205 4.20174 1.61054 5.26764C1.16903 6.33354 1.05351 7.50643 1.27859 8.63799C1.50367 9.76954 2.05924 10.8089 2.87505 11.6247C3.69086 12.4406 4.73026 12.9961 5.86181 13.2212C6.99337 13.4463 8.16626 13.3308 9.23216 12.8893C10.2981 12.4477 11.2091 11.7001 11.8501 10.7408C12.4911 9.7815 12.8332 8.65368 12.8332 7.49996C12.8332 6.73391 12.6823 5.97537 12.3891 5.26764C12.096 4.55991 11.6663 3.91684 11.1246 3.37517C10.583 2.83349 9.93989 2.40381 9.23216 2.11066C8.52443 1.81751 7.76588 1.66663 6.99984 1.66663ZM6.99984 12.1666C6.07686 12.1666 5.17461 11.8929 4.40718 11.3801C3.63975 10.8674 3.04161 10.1385 2.6884 9.28581C2.33519 8.43309 2.24278 7.49478 2.42284 6.58954C2.60291 5.68429 3.04736 4.85277 3.70001 4.20013C4.35265 3.54748 5.18417 3.10303 6.08942 2.92296C6.99466 2.7429 7.93297 2.83531 8.7857 3.18852C9.63842 3.54173 10.3673 4.13987 10.88 4.9073C11.3928 5.67473 11.6665 6.57698 11.6665 7.49996C11.6665 8.73764 11.1748 9.92462 10.2997 10.7998C9.4245 11.675 8.23752 12.1666 6.99984 12.1666ZM9.33317 6.91663H4.66651C4.5118 6.91663 4.36342 6.97808 4.25403 7.08748C4.14463 7.19688 4.08317 7.34525 4.08317 7.49996C4.08317 7.65467 4.14463 7.80304 4.25403 7.91244C4.36342 8.02183 4.5118 8.08329 4.66651 8.08329H9.33317C9.48788 8.08329 9.63626 8.02183 9.74565 7.91244C9.85505 7.80304 9.91651 7.65467 9.91651 7.49996C9.91651 7.34525 9.85505 7.19688 9.74565 7.08748C9.63626 6.97808 9.48788 6.91663 9.33317 6.91663Z" fill="#AE0005"/>
</g>
</svg>
