<svg width="25" height="25" viewBox="0 0 25 25" fill="none" xmlns="http://www.w3.org/2000/svg">
<g id="u:user-exclamation">
<path id="Vector" d="M15.0508 12.72C15.5844 12.2581 16.0123 11.6869 16.3057 11.045C16.599 10.4032 16.7508 9.70571 16.7508 9C16.7508 7.67392 16.224 6.40215 15.2863 5.46447C14.3486 4.52678 13.0769 4 11.7508 4C10.4247 4 9.15293 4.52678 8.21525 5.46447C7.27757 6.40215 6.75078 7.67392 6.75078 9C6.75695 9.70958 6.91655 10.4094 7.21862 11.0515C7.52068 11.6937 7.95807 12.2628 8.50078 12.72C7.10092 13.3539 5.91325 14.3775 5.07976 15.6685C4.24628 16.9596 3.80225 18.4633 3.80078 20C3.80078 20.2652 3.90614 20.5196 4.09367 20.7071C4.28121 20.8946 4.53557 21 4.80078 21C5.066 21 5.32035 20.8946 5.50789 20.7071C5.69542 20.5196 5.80078 20.2652 5.80078 20C5.80078 18.4087 6.43292 16.8826 7.55814 15.7574C8.68336 14.6321 10.2095 14 11.8008 14C13.3921 14 14.9182 14.6321 16.0434 15.7574C17.1686 16.8826 17.8008 18.4087 17.8008 20C17.8008 20.2652 17.9061 20.5196 18.0937 20.7071C18.2812 20.8946 18.5356 21 18.8008 21C19.066 21 19.3204 20.8946 19.5079 20.7071C19.6954 20.5196 19.8008 20.2652 19.8008 20C19.795 18.4578 19.3435 16.9502 18.5008 15.6586C17.6581 14.367 16.46 13.3465 15.0508 12.72ZM11.7508 12C11.1574 12 10.5774 11.8241 10.0841 11.4944C9.59072 11.1648 9.2062 10.6962 8.97914 10.1481C8.75208 9.59987 8.69267 8.99667 8.80842 8.41473C8.92418 7.83279 9.2099 7.29824 9.62946 6.87868C10.049 6.45912 10.5836 6.1734 11.1655 6.05764C11.7475 5.94189 12.3507 6.0013 12.8988 6.22836C13.447 6.45542 13.9155 6.83994 14.2452 7.33329C14.5748 7.82664 14.7508 8.40666 14.7508 9C14.7508 9.79565 14.4347 10.5587 13.8721 11.1213C13.3095 11.6839 12.5464 12 11.7508 12ZM20.2508 7C19.9856 7 19.7312 7.10536 19.5437 7.29289C19.3561 7.48043 19.2508 7.73478 19.2508 8V10C19.2508 10.2652 19.3561 10.5196 19.5437 10.7071C19.7312 10.8946 19.9856 11 20.2508 11C20.516 11 20.7704 10.8946 20.9579 10.7071C21.1454 10.5196 21.2508 10.2652 21.2508 10V8C21.2508 7.73478 21.1454 7.48043 20.9579 7.29289C20.7704 7.10536 20.516 7 20.2508 7ZM19.5008 12.29C19.318 12.4816 19.2145 12.7352 19.2108 13C19.21 13.1316 19.2352 13.2621 19.285 13.3839C19.3348 13.5057 19.4081 13.6166 19.5008 13.71C19.598 13.7983 19.7096 13.8694 19.8308 13.92C19.9505 13.9729 20.0799 14.0002 20.2108 14.0002C20.3417 14.0002 20.4711 13.9729 20.5908 13.92C20.7149 13.8751 20.8276 13.8034 20.9209 13.7101C21.0142 13.6168 21.0859 13.5041 21.1308 13.38C21.1868 13.2613 21.2142 13.1312 21.2108 13C21.2119 12.8014 21.1539 12.6069 21.0441 12.4414C20.9343 12.2759 20.7777 12.1468 20.5943 12.0706C20.4108 11.9945 20.2088 11.9747 20.0141 12.0137C19.8194 12.0528 19.6407 12.149 19.5008 12.29Z" fill="black"/>
</g>
</svg>
