<svg width="24" height="24" viewBox="0 0 24 24" fill="none" xmlns="http://www.w3.org/2000/svg">
<g id="Nav Icons" clip-path="url(#clip0_847_172)">
<path id="Vector" d="M11.9982 7.46661C13.1712 7.46661 14.1255 6.51245 14.1255 5.33948C14.1255 4.1665 13.1712 3.21216 11.9982 3.21216C10.8254 3.21216 9.87109 4.1665 9.87109 5.33948C9.87109 6.51245 10.8254 7.46661 11.9982 7.46661ZM11.9982 4.63525C12.3866 4.63525 12.7026 4.95111 12.7026 5.33948C12.7026 5.72784 12.3866 6.0437 11.9982 6.0437C11.61 6.0437 11.294 5.72784 11.294 5.33948C11.294 4.95111 11.61 4.63525 11.9982 4.63525Z" fill="#666666"/>
<path id="Vector_2" d="M7.24192 6.18567L7.16758 6.2287C6.82737 6.42517 6.71073 6.86023 6.9072 7.20044L7.84122 8.81799C7.93552 8.98151 8.09098 9.10071 8.27335 9.1496C8.45554 9.19849 8.64981 9.17285 8.81314 9.07837L8.88694 9.03589C9.17698 8.86853 9.54483 8.87347 9.84494 9.04779L9.86911 9.06171C10.1676 9.23273 10.3529 9.54694 10.3529 9.88202V9.96753C10.3529 10.3605 10.6715 10.6791 11.0644 10.6791H12.9323C13.3252 10.6791 13.6438 10.3605 13.6438 9.96753V9.88202C13.6438 9.54694 13.8291 9.23273 14.1254 9.06299L14.1496 9.04907C14.4519 8.87347 14.8197 8.86835 15.1096 9.03571L15.1836 9.07837C15.3469 9.17285 15.5412 9.1983 15.7234 9.1496C15.9057 9.10071 16.0612 8.98151 16.1555 8.81799L17.0895 7.20044C17.286 6.86023 17.1693 6.42517 16.8293 6.2287L16.7546 6.18567C16.4648 6.01813 16.2851 5.69861 16.2862 5.34705V5.32745C16.2851 4.98047 16.4648 4.66077 16.7548 4.49341L16.8293 4.45038C17.1695 4.25391 17.286 3.81885 17.0895 3.47864L16.1557 1.8609C16.0612 1.69757 15.9057 1.57819 15.7235 1.52948C15.5414 1.48077 15.3469 1.50623 15.1836 1.60071L15.1098 1.64319C14.8197 1.81055 14.4519 1.80542 14.1518 1.63129L14.1276 1.61737C13.8291 1.44635 13.6438 1.13196 13.6438 0.796875V0.711548C13.6438 0.318604 13.3252 0 12.9323 0H11.0644C10.6715 0 10.3531 0.318604 10.3531 0.711548V0.797058C10.3531 1.13196 10.1676 1.44635 9.87131 1.61609L9.84714 1.63C9.54502 1.8056 9.17698 1.81073 8.8873 1.64337L8.81333 1.60071C8.64981 1.50623 8.45572 1.48077 8.27335 1.52948C8.09098 1.57837 7.93552 1.69757 7.84122 1.86108L6.9072 3.47864C6.71073 3.81885 6.82737 4.25391 7.16758 4.45038L7.2421 4.49341C7.53214 4.66077 7.71158 4.98047 7.71067 5.33203V5.35162C7.71158 5.69861 7.53214 6.01813 7.24192 6.18567ZM9.13358 5.3421V5.3313C9.13541 4.69281 8.88382 4.08875 8.45224 3.64819L8.76096 3.11389C9.35862 3.2666 10.0086 3.18164 10.564 2.85919L10.5765 2.85205C11.1287 2.53564 11.5248 2.01672 11.6901 1.42291H12.3064C12.472 2.01672 12.8686 2.53601 13.4225 2.85333L13.4349 2.86047C13.9884 3.18201 14.6383 3.26678 15.2358 3.11389L15.5443 3.64819C15.1129 4.08875 14.8613 4.69226 14.8631 5.32928V5.3476C14.8613 5.98627 15.1129 6.59033 15.5443 7.0307L15.2358 7.56519C14.6379 7.41229 13.9879 7.49725 13.4327 7.81989L13.4201 7.82703C12.8678 8.14343 12.4718 8.66235 12.3064 9.25598H11.6901C11.5246 8.66217 11.1281 8.14307 10.5743 7.82574L10.5618 7.8186C10.0081 7.49707 9.35843 7.41229 8.76078 7.56519L8.45224 7.0307C8.88364 6.59033 9.13523 5.98663 9.13358 5.34961V5.3421Z" fill="#666666"/>
<path id="Vector_3" d="M20.4128 18.6081C19.8986 17.7409 19.1367 17.0627 18.2492 16.6421C19.2825 15.511 19.2524 13.7503 18.1586 12.6562C17.6135 12.1113 16.8887 11.811 16.118 11.811C15.3472 11.811 14.6224 12.1113 14.0773 12.6562C13.63 13.1038 13.3612 13.6628 13.2695 14.2445C12.8787 14.0522 12.4464 13.9503 11.9982 13.9503C11.5499 13.9503 11.1176 14.0522 10.7269 14.2445C10.6353 13.6626 10.3665 13.1038 9.91918 12.6562C9.37407 12.1113 8.64934 11.811 7.87847 11.811C7.10778 11.811 6.38305 12.1113 5.83794 12.6562C4.74389 13.7503 4.71404 15.5112 5.7473 16.6421C4.85979 17.0627 4.09789 17.7407 3.58373 18.6081C3.18621 19.2786 3.18017 20.0848 3.56762 20.7649C3.95855 21.4512 4.66277 21.861 5.45104 21.861H7.40203C7.40587 22.2184 7.50036 22.5758 7.68731 22.9039C8.07824 23.5902 8.78246 24 9.57073 24H14.4256C15.214 24 15.9183 23.5902 16.3092 22.9039C16.4961 22.5758 16.5904 22.2184 16.5945 21.861H18.5453C19.3337 21.861 20.038 21.4512 20.4289 20.7649C20.8163 20.0848 20.8103 19.2786 20.4128 18.6081ZM19.1926 20.0605C19.058 20.2969 18.8159 20.4379 18.5453 20.4379H16.0931C15.5903 19.7181 14.9084 19.1505 14.1295 18.7811C14.3749 18.5125 14.56 18.2082 14.6854 17.8857C15.1315 17.6895 15.6185 17.5827 16.118 17.5827C17.3718 17.5827 18.5486 18.2536 19.1887 19.3337C19.381 19.6582 19.2555 19.9501 19.1926 20.0605ZM15.069 21.473C15.2613 21.7972 15.1357 22.0891 15.0729 22.1995C14.9383 22.4359 14.6962 22.5771 14.4256 22.5771H9.57073C9.30028 22.5771 9.05822 22.4359 8.92363 22.1995C8.86065 22.0891 8.73504 21.7972 8.92748 21.4728C9.5678 20.3928 10.7444 19.7217 11.9982 19.7217C13.2521 19.7217 14.4287 20.3928 15.069 21.473ZM4.80394 20.0605C4.74096 19.9501 4.61535 19.6582 4.80779 19.3337C5.44811 18.2536 6.62475 17.5827 7.87847 17.5827C8.37798 17.5827 8.86504 17.6895 9.31109 17.8857C9.43651 18.2082 9.62163 18.5125 9.86699 18.7811C9.08806 19.1503 8.40618 19.7181 7.90337 20.4379H5.45122C5.18059 20.4379 4.93853 20.2969 4.80394 20.0605ZM6.84411 15.7313C6.27373 15.1609 6.27373 14.2328 6.84411 13.6624C7.12041 13.3861 7.48772 13.2339 7.87847 13.2339C8.26922 13.2339 8.63653 13.3861 8.91283 13.6624C9.4832 14.2328 9.4832 15.1609 8.91283 15.7313C8.63653 16.0074 8.26922 16.1596 7.87847 16.1596C7.48772 16.1596 7.12041 16.0074 6.84411 15.7313ZM15.0837 13.6624C15.3598 13.3861 15.7273 13.2339 16.118 13.2339C16.5088 13.2339 16.8761 13.3861 17.1524 13.6624C17.7228 14.2328 17.7228 15.1609 17.1524 15.7313C16.8761 16.0074 16.5088 16.1596 16.118 16.1596C15.7273 16.1596 15.3598 16.0074 15.0837 15.7313C14.5133 15.1609 14.5133 14.2328 15.0837 13.6624ZM13.0327 15.8016C13.6031 16.372 13.6031 17.3 13.0327 17.8704C12.7564 18.1467 12.3889 18.2988 11.9982 18.2988C11.6074 18.2988 11.2401 18.1467 10.9638 17.8704C10.3934 17.3 10.3934 16.372 10.9638 15.8016C11.2401 15.5253 11.6074 15.3732 11.9982 15.3732C12.3889 15.3732 12.7564 15.5251 13.0327 15.8016Z" fill="#666666"/>
</g>
<defs>
<clipPath id="clip0_847_172">
<rect width="24" height="24" fill="white"/>
</clipPath>
</defs>
</svg>
